# xmcd
#
# Track frame offsets:
#	150
#	16066
#	30688
#	46760
#	64436
#	79302
#	96253
#	108722
#	125866
#	147098
#
# Disc length: 2140 seconds
#
# Revision: 0
# Processed by: cddbd v1.5.2PL0 Copyright (c) Steve Scherf et al.
# Submitted via: EasyCDDAExtractor 8.2.3.1
#
DISCID=8b085a0a
DTITLE=Greg Holland - Let Me Drive
DYEAR=1994
DGENRE=Country
TTITLE0=Up To Feelin' Down
TTITLE1=Let Me Drive
TTITLE2=Hurts  Don't Do It
TTITLE3=Sweetwater
TTITLE4=Me And You And The Moon
TTITLE5=Teach Me To Dance
TTITLE6=You Look Like My Baby
TTITLE7=Oh To Be The One
TTITLE8=Still Goes On
TTITLE9=When I Come Back (I Wanna Be My Dog)
EXTD=
EXTT0=
EXTT1=
EXTT2=
EXTT3=
EXTT4=
EXTT5=
EXTT6=
EXTT7=
EXTT8=
EXTT9=
PLAYORDER=
